<svg width="127" height="50" viewBox="0 0 127 50" fill="none" xmlns="http://www.w3.org/2000/svg">
<path d="M21.88 44C21.45 44 21.13 43.9 20.92 43.7C20.72 43.49 20.62 43.17 20.62 42.74V24.95C20.62 24.51 20.72 24.19 20.92 23.99C21.13 23.79 21.45 23.69 21.88 23.69C22.32 23.69 22.64 23.79 22.84 23.99C23.04 24.19 23.14 24.51 23.14 24.95V42.74C23.14 43.17 23.04 43.49 22.84 43.7C22.64 43.9 22.32 44 21.88 44ZM30.6398 44C29.7998 44 29.3798 43.58 29.3798 42.74V30.05C29.3798 29.21 29.7998 28.79 30.6398 28.79C31.4798 28.79 31.8998 29.21 31.8998 30.05V30.545C32.9598 29.375 34.5198 28.79 36.5798 28.79H37.4198C39.4198 28.79 40.8998 29.27 41.8598 30.23C42.8198 31.19 43.2998 32.67 43.2998 34.67V42.74C43.2998 43.58 42.8798 44 42.0398 44C41.1998 44 40.7798 43.58 40.7798 42.74V34.67C40.7798 33.36 40.5398 32.475 40.0598 32.015C39.5898 31.545 38.7098 31.31 37.4198 31.31H36.5798C35.3798 31.31 34.3348 31.45 33.4448 31.73C32.5548 32 32.0398 32.43 31.8998 33.02V42.74C31.8998 43.58 31.4798 44 30.6398 44ZM60.4766 37.43V38.15C60.4766 39.44 60.7116 40.32 61.1816 40.79C61.6516 41.25 62.5366 41.48 63.8366 41.48H66.2966C67.3166 41.48 68.0716 41.385 68.5616 41.195C69.0516 41.005 69.3766 40.67 69.5366 40.19C69.6466 39.81 69.7966 39.52 69.9866 39.32C70.1866 39.12 70.4866 39.02 70.8866 39.02C71.3066 39.02 71.6266 39.13 71.8466 39.35C72.0666 39.57 72.1366 39.89 72.0566 40.31C71.8366 41.55 71.2466 42.475 70.2866 43.085C69.3266 43.695 67.9966 44 66.2966 44H63.8366C61.8466 44 60.3666 43.52 59.3966 42.56C58.4366 41.6 57.9566 40.13 57.9566 38.15V34.67C57.9566 32.64 58.4366 31.15 59.3966 30.2C60.3666 29.24 61.8466 28.77 63.8366 28.79H66.2966C68.2966 28.79 69.7766 29.27 70.7366 30.23C71.6966 31.18 72.1766 32.66 72.1766 34.67V36.17C72.1766 37.01 71.7566 37.43 70.9166 37.43H60.4766ZM63.8366 31.31C62.5366 31.29 61.6516 31.515 61.1816 31.985C60.7116 32.455 60.4766 33.35 60.4766 34.67V34.91H69.6566V34.67C69.6566 33.36 69.4216 32.475 68.9516 32.015C68.4916 31.545 67.6066 31.31 66.2966 31.31H63.8366ZM78.9503 44C78.1103 44 77.6903 43.58 77.6903 42.74V30.05C77.6903 29.21 78.1103 28.79 78.9503 28.79C79.7903 28.79 80.2103 29.21 80.2103 30.05V31.22C80.8003 30.42 81.5503 29.815 82.4603 29.405C83.3803 28.995 84.4303 28.79 85.6103 28.79C86.4503 28.79 86.8703 29.21 86.8703 30.05C86.8703 30.89 86.4503 31.31 85.6103 31.31C83.8803 31.31 82.5603 31.63 81.6503 32.27C80.7403 32.91 80.2603 33.755 80.2103 34.805V42.74C80.2103 43.58 79.7903 44 78.9503 44ZM91.753 44C90.913 44 90.493 43.58 90.493 42.74V30.05C90.493 29.21 90.913 28.79 91.753 28.79C92.593 28.79 93.013 29.21 93.013 30.05V30.545C94.073 29.375 95.633 28.79 97.693 28.79H98.533C100.533 28.79 102.013 29.27 102.973 30.23C103.933 31.19 104.413 32.67 104.413 34.67V42.74C104.413 43.58 103.993 44 103.153 44C102.313 44 101.893 43.58 101.893 42.74V34.67C101.893 33.36 101.653 32.475 101.173 32.015C100.703 31.545 99.823 31.31 98.533 31.31H97.693C96.493 31.31 95.448 31.45 94.558 31.73C93.668 32 93.153 32.43 93.013 33.02V42.74C93.013 43.58 92.593 44 91.753 44ZM115.516 44C113.526 44 112.046 43.52 111.076 42.56C110.116 41.6 109.636 40.13 109.636 38.15V34.67C109.636 32.66 110.116 31.18 111.076 30.23C112.046 29.27 113.526 28.79 115.516 28.79H117.976C119.976 28.79 121.456 29.27 122.416 30.23C123.376 31.19 123.856 32.67 123.856 34.67V38.12C123.856 40.11 123.376 41.59 122.416 42.56C121.456 43.52 119.976 44 117.976 44H115.516ZM112.156 38.15C112.156 39.44 112.391 40.32 112.861 40.79C113.331 41.25 114.216 41.48 115.516 41.48H117.976C119.286 41.48 120.171 41.245 120.631 40.775C121.101 40.305 121.336 39.42 121.336 38.12V34.67C121.336 33.36 121.101 32.475 120.631 32.015C120.171 31.545 119.286 31.31 117.976 31.31H115.516C114.646 31.31 113.966 31.41 113.476 31.61C112.996 31.8 112.656 32.14 112.456 32.63C112.256 33.11 112.156 33.79 112.156 34.67V38.15Z" fill="#333333"/>
<path d="M50 44C50 29.8847 50 21.9707 50 7.8554C50 5.19359 52 0.122141 60 1.13083M45 12.8988H60" stroke="#53377A" stroke-width="2"/>
<path d="M2 21C6.98387 9.77967 100.016 10.9017 105 21" stroke="#53377A" stroke-width="2"/>
<path d="M105 21C105 21.5523 104.552 22 104 22C103.448 22 103 21.5523 103 21C103 20.4477 103.448 20 104 20C104.552 20 105 20.4477 105 21Z" fill="#735184"/>
<path d="M2 21C2 21.5523 1.55228 22 1 22C0.447715 22 0 21.5523 0 21C0 20.4477 0.447715 20 1 20C1.55228 20 2 20.4477 2 21Z" fill="#735184"/>
</svg>
